<svg width="1600" height="900" viewBox="0 0 1600 900" fill="none" xmlns="http://www.w3.org/2000/svg">
  <rect width="1600" height="900" rx="34" fill="#05070B"/>
  <rect x="28" y="28" width="1544" height="844" rx="30" fill="url(#bg)" stroke="#243041" stroke-width="2"/>
  <rect x="62" y="70" width="1476" height="762" rx="24" fill="#0A1017" stroke="#233041"/>
  <rect x="96" y="104" width="1408" height="694" rx="18" fill="#0D131A" stroke="#1F2A36"/>
  <circle cx="124" cy="132" r="10" fill="#FF5F56"/>
  <circle cx="158" cy="132" r="10" fill="#FFBD2E"/>
  <circle cx="192" cy="132" r="10" fill="#27C93F"/>
  <rect x="120" y="174" width="532" height="24" rx="12" fill="#182331"/>
  <rect x="120" y="214" width="540" height="16" rx="8" fill="#1C2734"/>
  <rect x="120" y="242" width="430" height="16" rx="8" fill="#1C2734"/>
  <rect x="120" y="286" width="260" height="18" rx="9" fill="#5CE0A0"/>
  <rect x="120" y="324" width="352" height="18" rx="9" fill="#6DA7FF"/>
  <rect x="120" y="362" width="492" height="18" rx="9" fill="#6DA7FF"/>
  <rect x="120" y="400" width="392" height="18" rx="9" fill="#6DA7FF"/>
  <rect x="120" y="440" width="268" height="18" rx="9" fill="#B8D3FF"/>
  <rect x="120" y="478" width="340" height="18" rx="9" fill="#B8D3FF"/>
  <rect x="120" y="516" width="220" height="18" rx="9" fill="#B8D3FF"/>
  <rect x="120" y="556" width="182" height="18" rx="9" fill="#EDB757"/>
  <rect x="120" y="594" width="232" height="18" rx="9" fill="#EDB757"/>
  <rect x="120" y="640" width="720" height="92" rx="16" fill="#121A25" stroke="#233042"/>
  <rect x="146" y="668" width="126" height="16" rx="8" fill="#5CE0A0"/>
  <rect x="284" y="668" width="300" height="16" rx="8" fill="#E6E8EA"/>
  <rect x="918" y="172" width="516" height="380" rx="24" fill="#0F1722" stroke="#243244"/>
  <rect x="950" y="208" width="452" height="102" rx="16" fill="#172331"/>
  <rect x="978" y="238" width="188" height="16" rx="8" fill="#6DA7FF"/>
  <rect x="978" y="268" width="248" height="12" rx="6" fill="#64748B"/>
  <rect x="950" y="336" width="452" height="182" rx="16" fill="#111A24" stroke="#253345"/>
  <rect x="978" y="366" width="242" height="14" rx="7" fill="#5CE0A0"/>
  <rect x="978" y="396" width="306" height="14" rx="7" fill="#E6E8EA"/>
  <rect x="978" y="426" width="260" height="14" rx="7" fill="#E6E8EA"/>
  <rect x="978" y="456" width="188" height="14" rx="7" fill="#E6E8EA"/>
  <text x="116" y="744" fill="#7C8695" font-family="Segoe UI, Arial, sans-serif" font-size="26">manoj@portfolio ~ %</text>
  <defs>
    <linearGradient id="bg" x1="120" y1="48" x2="1450" y2="860" gradientUnits="userSpaceOnUse">
      <stop stop-color="#111827"/>
      <stop offset="1" stop-color="#06070B"/>
    </linearGradient>
  </defs>
</svg>
