<svg width="1600" height="900" viewBox="0 0 1600 900" fill="none" xmlns="http://www.w3.org/2000/svg">
  <rect width="1600" height="900" rx="36" fill="#06070B"/>
  <rect x="40" y="40" width="1520" height="820" rx="30" fill="url(#bg)" stroke="#243041" stroke-width="2"/>
  <rect x="76" y="82" width="1448" height="756" rx="24" fill="#0A1017" stroke="#233041"/>
  <rect x="112" y="120" width="1376" height="680" rx="20" fill="#0D131A" stroke="#1F2A36"/>
  <circle cx="148" cy="152" r="10" fill="#FF5F56"/>
  <circle cx="182" cy="152" r="10" fill="#FFBD2E"/>
  <circle cx="216" cy="152" r="10" fill="#27C93F"/>
  <rect x="138" y="194" width="380" height="24" rx="12" fill="#182331"/>
  <rect x="138" y="236" width="560" height="16" rx="8" fill="#1C2734"/>
  <rect x="138" y="264" width="430" height="16" rx="8" fill="#1C2734"/>
  <rect x="138" y="306" width="242" height="18" rx="9" fill="#5CE0A0"/>
  <rect x="138" y="344" width="330" height="18" rx="9" fill="#6DA7FF"/>
  <rect x="138" y="382" width="460" height="18" rx="9" fill="#6DA7FF"/>
  <rect x="138" y="420" width="372" height="18" rx="9" fill="#6DA7FF"/>
  <rect x="138" y="462" width="286" height="18" rx="9" fill="#B8D3FF"/>
  <rect x="138" y="500" width="220" height="18" rx="9" fill="#B8D3FF"/>
  <rect x="138" y="538" width="180" height="18" rx="9" fill="#EDB757"/>
  <rect x="138" y="576" width="240" height="18" rx="9" fill="#EDB757"/>
  <rect x="138" y="630" width="780" height="102" rx="18" fill="#121A25" stroke="#233042"/>
  <rect x="168" y="664" width="140" height="16" rx="8" fill="#5CE0A0"/>
  <rect x="320" y="664" width="300" height="16" rx="8" fill="#E6E8EA"/>
  <rect x="932" y="194" width="476" height="350" rx="24" fill="#101723" stroke="#233244"/>
  <rect x="960" y="228" width="420" height="110" rx="18" fill="#172331"/>
  <rect x="988" y="258" width="210" height="16" rx="8" fill="#6DA7FF"/>
  <rect x="988" y="288" width="270" height="12" rx="6" fill="#64748B"/>
  <rect x="960" y="366" width="420" height="146" rx="18" fill="#111A24" stroke="#243345"/>
  <rect x="988" y="396" width="260" height="14" rx="7" fill="#5CE0A0"/>
  <rect x="988" y="426" width="310" height="14" rx="7" fill="#E6E8EA"/>
  <rect x="988" y="456" width="250" height="14" rx="7" fill="#E6E8EA"/>
  <rect x="988" y="486" width="180" height="14" rx="7" fill="#E6E8EA"/>
  <rect x="930" y="590" width="478" height="90" rx="16" fill="#0F141D" stroke="#223042"/>
  <text x="138" y="748" fill="#7C8695" font-family="Segoe UI, Arial, sans-serif" font-size="26">manoj@portfolio ~ %</text>
  <defs>
    <linearGradient id="bg" x1="120" y1="48" x2="1480" y2="860" gradientUnits="userSpaceOnUse">
      <stop stop-color="#111827"/>
      <stop offset="1" stop-color="#06070B"/>
    </linearGradient>
  </defs>
</svg>
