<svg width="1400" height="900" viewBox="0 0 1400 900" fill="none" xmlns="http://www.w3.org/2000/svg">
  <rect width="1400" height="900" rx="32" fill="#06070B"/>
  <rect x="40" y="40" width="1320" height="820" rx="28" fill="#0B0F16" stroke="#2B3340" stroke-width="2"/>
  <rect x="70" y="80" width="1260" height="740" rx="22" fill="#090E14" stroke="#2D3643"/>
  <circle cx="116" cy="112" r="10" fill="#FF5F56"/>
  <circle cx="150" cy="112" r="10" fill="#FFBD2E"/>
  <circle cx="184" cy="112" r="10" fill="#27C93F"/>
  <rect x="92" y="150" width="1216" height="620" rx="18" fill="#0D1117" stroke="#1E2632"/>
  <rect x="118" y="176" width="430" height="22" rx="11" fill="#1A2230"/>
  <rect x="118" y="210" width="560" height="16" rx="8" fill="#1C2533"/>
  <rect x="118" y="238" width="480" height="16" rx="8" fill="#1C2533"/>
  <rect x="118" y="278" width="204" height="16" rx="8" fill="#5CE0A0"/>
  <rect x="118" y="312" width="340" height="16" rx="8" fill="#6DA7FF"/>
  <rect x="118" y="346" width="520" height="16" rx="8" fill="#6DA7FF"/>
  <rect x="118" y="380" width="420" height="16" rx="8" fill="#6DA7FF"/>
  <rect x="118" y="420" width="240" height="16" rx="8" fill="#B9D0FF"/>
  <rect x="118" y="454" width="320" height="16" rx="8" fill="#B9D0FF"/>
  <rect x="118" y="488" width="260" height="16" rx="8" fill="#B9D0FF"/>
  <rect x="118" y="528" width="180" height="16" rx="8" fill="#EDB757"/>
  <rect x="118" y="562" width="220" height="16" rx="8" fill="#EDB757"/>
  <rect x="114" y="650" width="780" height="88" rx="14" fill="#121823" stroke="#213042"/>
  <rect x="138" y="676" width="120" height="16" rx="8" fill="#5CE0A0"/>
  <rect x="268" y="676" width="270" height="16" rx="8" fill="#E6E8EA"/>
  <rect x="560" y="176" width="420" height="340" rx="20" fill="#101821" stroke="#253244"/>
  <rect x="590" y="208" width="360" height="82" rx="14" fill="#1D2936"/>
  <rect x="614" y="232" width="168" height="16" rx="8" fill="#6DA7FF"/>
  <rect x="614" y="258" width="220" height="12" rx="6" fill="#6B7482"/>
  <rect x="590" y="320" width="360" height="164" rx="14" fill="#111827" stroke="#243043"/>
  <rect x="614" y="346" width="230" height="14" rx="7" fill="#5CE0A0"/>
  <rect x="614" y="374" width="290" height="14" rx="7" fill="#E6E8EA"/>
  <rect x="614" y="402" width="250" height="14" rx="7" fill="#E6E8EA"/>
  <rect x="614" y="430" width="170" height="14" rx="7" fill="#E6E8EA"/>
  <text x="118" y="628" fill="#7C8695" font-family="Segoe UI, Arial, sans-serif" font-size="24">manoj@portfolio ~ %</text>
</svg>
